<?xml version="1.0" encoding="UTF-8" standalone="no"?>
<!-- Created with Inkscape (http://www.inkscape.org/) -->
<svg
   xmlns:dc="http://purl.org/dc/elements/1.1/"
   xmlns:cc="http://creativecommons.org/ns#"
   xmlns:rdf="http://www.w3.org/1999/02/22-rdf-syntax-ns#"
   xmlns:svg="http://www.w3.org/2000/svg"
   xmlns="http://www.w3.org/2000/svg"
   xmlns:sodipodi="http://sodipodi.sourceforge.net/DTD/sodipodi-0.dtd"
   xmlns:inkscape="http://www.inkscape.org/namespaces/inkscape"
   width="372.04724"
   height="262.20471"
   id="svg2403"
   sodipodi:version="0.32"
   inkscape:version="0.46"
   version="1.0"
   sodipodi:docname="falling_down.svg"
   inkscape:output_extension="org.inkscape.output.svg.inkscape"
   winning_condition="collect">
  <defs
     id="defs2405">
    <inkscape:perspective
       sodipodi:type="inkscape:persp3d"
       inkscape:vp_x="0 : 372.04724 : 1"
       inkscape:vp_y="0 : 1000 : 0"
       inkscape:vp_z="1052.3622 : 372.04724 : 1"
       inkscape:persp3d-origin="526.18109 : 248.03149 : 1"
       id="perspective2412" />
  </defs>
  <sodipodi:namedview
     inkscape:document-units="px"
     pagecolor="#ffffff"
     bordercolor="#666666"
     borderopacity="1.0"
     inkscape:pageopacity="0.0"
     inkscape:pageshadow="2"
     inkscape:zoom="45.469155"
     inkscape:cx="39.300979"
     inkscape:cy="29.080347"
     inkscape:current-layer="layer1"
     id="namedview2407"
     showgrid="false"
     inkscape:window-width="1179"
     inkscape:window-height="785"
     inkscape:window-x="244"
     inkscape:window-y="187"
     inkscape:object-nodes="true"
     objecttolerance="1" />
  <metadata
     id="metadata2409">
    <rdf:RDF>
      <cc:Work
         rdf:about="">
        <dc:format>image/svg+xml</dc:format>
        <dc:type
           rdf:resource="http://purl.org/dc/dcmitype/StillImage" />
      </cc:Work>
    </rdf:RDF>
  </metadata>
  <g
     inkscape:label="Layer 1"
     inkscape:groupmode="layer"
     id="layer1">
    <rect
       style="fill:none;fill-opacity:1;stroke:#ff0000;stroke-width:1.22085428;stroke-miterlimit:4;stroke-dasharray:none;stroke-opacity:1;display:inline"
       id="viewport"
       width="147.75871"
       height="90.785614"
       x="20.569191"
       y="160.32338"
       inkscape:label="" />
    <rect
       style="fill:#0000ff;fill-opacity:1;stroke:none;stroke-width:3;stroke-miterlimit:4;stroke-dasharray:none;stroke-opacity:1;display:inline"
       id="asdf"
       width="17.716536"
       height="3.5433071"
       x="21.917698"
       y="237.86401"
       inkscape:label="ship_triggers=bar restitution=0.5 " />
    <rect
       style="fill:#c85647;fill-opacity:1;display:inline"
       id="rect3163"
       width="3.5433071"
       height="3.5433071"
       x="68.2686"
       y="150.54988"
       inkscape:label="density=1.0 ship_triggers=trapdoor2" />
    <rect
       style="fill:#c85647;fill-opacity:1;display:inline"
       id="rect2497"
       width="3.5433071"
       height="3.5433071"
       x="93.452751"
       y="150.97408"
       inkscape:label="density=1.0 ship_triggers=trapdoor3" />
    <rect
       style="fill:#c85647;fill-opacity:1;display:inline"
       id="rect2499"
       width="3.5433071"
       height="3.5433071"
       x="116.52258"
       y="150.97408"
       inkscape:label="density=5.0 ship_triggers=trapdoor4" />
    <rect
       style="fill:#d900ff;fill-opacity:1;stroke:none;stroke-width:0.35433072;stroke-miterlimit:4;stroke-dasharray:none;stroke-opacity:1"
       id="trigger"
       width="15.21627"
       height="4.1162601"
       x="74.450905"
       y="229.93782"
       inkscape:label="ship_triggers=trapdoor1" />
    <rect
       style="fill:#00ff00;fill-opacity:1;stroke:none;stroke-width:0.35433072;stroke-miterlimit:4;stroke-dasharray:none;stroke-opacity:1"
       id="trapdoor1"
       width="13.252881"
       height="3.4359322"
       x="63.810169"
       y="156.67252"
       inkscape:label="destroyed_by=trapdoor1" />
    <rect
       style="fill:#00ff00;fill-opacity:1;stroke:none;stroke-width:0.35433072;stroke-miterlimit:4;stroke-dasharray:none;stroke-opacity:1"
       id="rect3275"
       width="13.252881"
       height="3.4359322"
       x="87.616264"
       y="157.89963"
       inkscape:label="destroyed_by=trapdoor2" />
    <rect
       style="fill:#00ff00;fill-opacity:1;stroke:none;stroke-width:0.35433072;stroke-miterlimit:4;stroke-dasharray:none;stroke-opacity:1"
       id="rect3277"
       width="13.252881"
       height="3.4359322"
       x="109.70441"
       y="157.40878"
       inkscape:label="destroyed_by=trapdoor3" />
    <rect
       style="fill:#c85647;fill-opacity:1;display:inline"
       id="rect3283"
       width="3.5433071"
       height="3.5433071"
       x="116.1072"
       y="140.87837"
       inkscape:label="ship_triggers=collect " />
    <rect
       style="fill:#00ff00;fill-opacity:1;stroke:none;stroke-width:0.35433072;stroke-miterlimit:4;stroke-dasharray:none;stroke-opacity:1"
       id="rect3289"
       width="13.252881"
       height="3.4359322"
       x="110.07255"
       y="145.26031"
       inkscape:label="destroyed_by=trapdoor4" />
    <path
       style="fill:none;fill-rule:evenodd;stroke:#000000;stroke-width:1px;stroke-linecap:butt;stroke-linejoin:miter;stroke-opacity:1"
       d="M 10.065081,168.11809 C 43.323608,178.18317 58.202423,191.74915 63.45377,163.30435 C 68.705116,134.85956 68.267504,127.42015 72.206014,144.48703 C 76.144523,161.55391 83.146319,167.24286 83.146319,167.24286 C 83.146319,167.24286 90.148114,171.61899 90.148114,156.30256 C 90.148114,140.98613 92.336175,138.36046 97.149909,144.92464 C 101.96364,151.48882 95.785666,163.27665 100.21319,165.49241 C 105.21512,167.99563 109.40305,169.86854 110.27828,161.99152 C 111.1535,154.1145 109.40305,136.1724 112.02872,131.35866 C 114.6544,126.54493 128.22038,124.35687 125.15709,136.1724 C 122.0938,147.98793 120.78097,159.36584 122.53142,163.30435 C 124.28187,167.24286 146.60009,180.37123 156.66517,182.12168 C 166.73025,183.87213 158.85323,201.37662 149.22576,223.25723 C 139.59829,245.13784 147.47531,253.01486 147.47531,253.01486"
       id="path3311"
       inkscape:label="ship_triggers=game_over"
       sodipodi:nodetypes="csscsssssssssc" />
    <path
       style="fill:none;fill-rule:evenodd;stroke:#fda000;stroke-width:1px;stroke-linecap:butt;stroke-linejoin:miter;stroke-opacity:1"
       d="M 139.16068,245.13783 L 119.90574,238.13604 L 123.84425,256.95336 L 115.09201,258.70381 L 112.90395,238.57365 L 96.712297,237.26081 L 98.462746,255.20291 L 91.460951,255.64053 L 91.460951,237.26081 L 73.956463,237.69843 L 74.831687,256.07814 L 67.829892,257.82859 L 67.829892,237.69843 L 53.826301,247.32589"
       id="path3315"
       inkscape:label="ship_triggers=game_over" />
    <path
       style="fill:none;fill-rule:evenodd;stroke:#000000;stroke-width:1px;stroke-linecap:butt;stroke-linejoin:miter;marker-start:none;stroke-opacity:1"
       d="M 6.1265708,198.31333 L 6.1265708,212.8811"
       id="gravity"
       inkscape:label="#path3317" />
    <path
       style="fill:#00ffff;fill-rule:evenodd;stroke:none;stroke-width:1px;stroke-linecap:butt;stroke-linejoin:miter;stroke-opacity:1"
       d="M 51.61213,223.614 L 54.295329,219.66812 L 57.92554,223.45616 L 54.295329,216.19574 L 51.61213,223.614 z"
       id="path2397"
       inkscape:label="density=1.0 triangulate" />
    <path
       style="fill:#00ffff;fill-rule:evenodd;stroke:none;stroke-width:1px;stroke-linecap:butt;stroke-linejoin:miter;stroke-opacity:1"
       d="M 59.819563,219.1946 L 62.502762,211.77634 L 66.132973,219.03676 L 62.502762,215.24872 L 59.819563,219.1946 z"
       id="path2399"
       inkscape:label="density=1.0 triangulate" />
    <path
       style="fill:#00ff00;fill-rule:evenodd;stroke:#000000;stroke-width:1px;stroke-linecap:butt;stroke-linejoin:miter;stroke-opacity:1"
       d="M 47.824083,208.22505 L 49.718106,212.96011 L 50.191612,206.33103 L 53.663988,210.11908 L 52.085635,204.59484 L 59.030386,203.33216 L 54.610999,200.96463 L 48.771095,197.96576 L 49.402436,203.33216 L 43.878202,204.59484 L 44.351707,209.80341 L 47.824083,208.22505 z"
       id="path2401"
       inkscape:label="density=0.05 triangulate" />
    <path
       style="fill:#0000e2;fill-opacity:1;fill-rule:evenodd;stroke:none;stroke-width:1px;stroke-linecap:butt;stroke-linejoin:miter;stroke-opacity:1"
       d="M 33.407789,224.53141 L 30.573143,231.61802 L 33.407789,230.90936 L 34.11645,230.90936 L 36.951096,231.61802 L 34.11645,224.53141 L 33.407789,224.53141 z"
       id="ship"
       sodipodi:nodetypes="ccccccc"
       inkscape:label="density=1.0 triangulate" />
  </g>
</svg>
