<?xml version="1.0" encoding="UTF-8" standalone="no"?>
<!-- Created with Inkscape (http://www.inkscape.org/) -->
<svg
   xmlns:dc="http://purl.org/dc/elements/1.1/"
   xmlns:cc="http://creativecommons.org/ns#"
   xmlns:rdf="http://www.w3.org/1999/02/22-rdf-syntax-ns#"
   xmlns:svg="http://www.w3.org/2000/svg"
   xmlns="http://www.w3.org/2000/svg"
   xmlns:sodipodi="http://sodipodi.sourceforge.net/DTD/sodipodi-0.dtd"
   xmlns:inkscape="http://www.inkscape.org/namespaces/inkscape"
   width="500"
   height="200"
   id="svg2"
   sodipodi:version="0.32"
   inkscape:version="0.46"
   version="1.0"
   sodipodi:docname="level0.svg"
   inkscape:output_extension="org.inkscape.output.svg.inkscape"
   winning_condition="collect1,collect2,collect3">
  <defs
     id="defs4">
    <inkscape:perspective
       sodipodi:type="inkscape:persp3d"
       inkscape:vp_x="0 : 526.18109 : 1"
       inkscape:vp_y="0 : 1000 : 0"
       inkscape:vp_z="744.09448 : 526.18109 : 1"
       inkscape:persp3d-origin="372.04724 : 350.78739 : 1"
       id="perspective10" />
  </defs>
  <sodipodi:namedview
     id="base"
     pagecolor="#000030"
     bordercolor="#666666"
     borderopacity="1.0"
     gridtolerance="10000"
     guidetolerance="10"
     objecttolerance="10"
     inkscape:pageopacity="1"
     inkscape:pageshadow="2"
     inkscape:zoom="4.9366894"
     inkscape:cx="85.213875"
     inkscape:cy="148.84899"
     inkscape:document-units="px"
     inkscape:current-layer="layer2"
     showgrid="true"
     units="mm"
     borderlayer="true"
     inkscape:showpageshadow="true"
     inkscape:window-width="1270"
     inkscape:window-height="743"
     inkscape:window-x="2"
     inkscape:window-y="30"
     inkscape:snap-global="true">
    <inkscape:grid
       type="xygrid"
       id="grid2472"
       visible="true"
       enabled="true"
       units="px"
       spacingx="0.2mm"
       spacingy="0.2mm" />
  </sodipodi:namedview>
  <metadata
     id="metadata7">
    <rdf:RDF>
      <cc:Work
         rdf:about="">
        <dc:format>image/svg+xml</dc:format>
        <dc:type
           rdf:resource="http://purl.org/dc/dcmitype/StillImage" />
      </cc:Work>
    </rdf:RDF>
  </metadata>
  <g
     inkscape:groupmode="layer"
     id="layer2"
     inkscape:label="Static"
     style="display:inline">
    <rect
       style="fill:#00ff00;fill-opacity:1;stroke:none;stroke-width:2.17518783;stroke-miterlimit:4;stroke-dasharray:none;stroke-opacity:1"
       id="rect2387"
       width="99.49054"
       height="9.9512606"
       x="3.3923192"
       y="57.183979"
       inkscape:label="" />
    <rect
       style="fill:#00ff00;fill-opacity:1;stroke:none;stroke-width:3;stroke-miterlimit:4;stroke-dasharray:none;stroke-opacity:1"
       id="rect3159"
       width="17.716536"
       height="3.5433071"
       x="70.866142"
       y="31.889765"
       inkscape:label="ship_triggers=bar" />
    <rect
       style="fill:#ffff00;fill-opacity:1;stroke:none;stroke-width:3;stroke-miterlimit:4;stroke-dasharray:none;stroke-opacity:1"
       id="rect3169"
       width="10.629921"
       height="7.0866141"
       x="63.779526"
       y="7.0866146"
       inkscape:label="density=1 ship_triggers=foo" />
    <path
       style="fill:#ffff00;fill-opacity:1;fill-rule:evenodd;stroke:none;stroke-width:1px;stroke-linecap:butt;stroke-linejoin:miter;stroke-opacity:1"
       d="M 67.322835,28.346457 L 74.409449,28.346457 L 67.322835,17.716536 L 63.779528,24.80315 L 67.322835,28.346457 z"
       id="path3179"
       inkscape:label="density=1 ship_triggers=game_over destroyed_by=foo" />
    <path
       style="fill:#ff7e00;fill-opacity:1;fill-rule:evenodd;stroke:none;stroke-width:1px;stroke-linecap:butt;stroke-linejoin:miter;stroke-opacity:1"
       d="M 51.099345,48.136426 L 56.244999,48.136426 L 53.672172,40.193989 L 51.099345,48.136426 z"
       id="shipx"
       inkscape:label="density=1.0 destroyed_by=foo" />
    <rect
       style="fill:#c85647;fill-opacity:1"
       id="rect2391"
       width="3.5433071"
       height="3.5433071"
       x="53.149605"
       y="72.440948"
       inkscape:label="ship_triggers=collect3 destroyed_by=collect3" />
    <rect
       style="fill:#c85647;fill-opacity:1"
       id="rect3163"
       width="3.5433071"
       height="3.5433071"
       x="67.322838"
       y="75.984253"
       inkscape:label="ship_triggers=collect2 destroyed_by=collect2" />
    <rect
       style="fill:none;fill-opacity:1;stroke:#ff0000;stroke-width:0.3991932;stroke-miterlimit:4;stroke-dasharray:none;stroke-opacity:1"
       id="viewport"
       width="21.235216"
       height="67.538605"
       x="42.501152"
       y="8.7045784"
       inkscape:label="" />
    <path
       style="fill:none;fill-rule:evenodd;stroke:#ff0000;stroke-width:1px;stroke-linecap:butt;stroke-linejoin:miter;stroke-opacity:1"
       d="M 46.284439,67.268174 L 48.225399,81.153505 L 56.692913,83.070866 L 67.322835,90.15748 L 81.496063,93.700787 L 94.434849,93.143573 L 102.75591,100.7874 L 124.01575,104.33071 L 134.64567,100.7874 L 144.27046,94.487315 L 155.90551,90.15748 L 166.53543,75.984252 L 166.53543,61.811024 L 152.3622,44.094488 L 142.03089,39.575344 L 124.01575,38.162307 L 106.29921,37.007874 L 106.46476,22.498176 L 111.37013,15.775999 L 100.83266,-2.0286879"
       id="path2392"
       sodipodi:nodetypes="ccccccccccccccscc"
       inkscape:label="ship_triggers=game_over flip" />
    <g
       id="ship"
       inkscape:label="multishape">
      <path
         inkscape:label="density=1.0"
         sodipodi:nodetypes="cccc"
         id="leftship"
         d="M 77.952756,44.094488 L 75.11811,51.181102 L 77.952756,50.472441 L 77.952756,44.094488 z"
         style="fill:#0000e2;fill-opacity:1;fill-rule:evenodd;stroke:none;stroke-width:1px;stroke-linecap:butt;stroke-linejoin:miter;stroke-opacity:1" />
      <path
         sodipodi:nodetypes="cccc"
         inkscape:label="density=1.0"
         id="rightship"
         d="M 78.661417,50.472441 L 81.496063,51.181102 L 78.661417,44.094488 L 78.661417,50.472441 z"
         style="fill:#0000ff;fill-opacity:1;fill-rule:evenodd;stroke:none;stroke-width:1px;stroke-linecap:butt;stroke-linejoin:miter;stroke-opacity:1" />
      <path
         id="path3180"
         d="M 78.661417,44.094488 L 77.952756,44.094488 L 77.952756,50.472441 L 78.661417,50.472441 L 78.661417,44.094488 z"
         style="fill:#000000;fill-opacity:1;fill-rule:evenodd;stroke:none;stroke-width:1px;stroke-linecap:butt;stroke-linejoin:miter;stroke-opacity:1" />
    </g>
    <path
       style="fill:none;fill-rule:evenodd;stroke:#ec00d3;stroke-width:1px;stroke-linecap:butt;stroke-linejoin:miter;stroke-opacity:1"
       d="M 79.454378,67.435533 C 79.454378,67.435533 95.682461,76.919478 102.21584,80.291547 C 108.74923,83.663616 107.06319,76.07646 113.80733,72.704391 C 120.55147,69.332322 125.60957,85.981913 133.82899,80.713055 C 142.04841,75.444197 138.46559,67.014025 134.88276,60.902149 C 131.29994,54.790274 119.70845,58.583852 113.80733,58.373097 C 107.90621,58.162343 108.32772,51.207451 102.4266,51.418205 C 96.525478,51.628959 92.099638,57.108572 92.099638,57.108572"
       id="path3189"
       inkscape:label="ship_triggers=game_over" />
    <path
       style="font-size:20px;font-style:normal;font-variant:normal;font-weight:normal;font-stretch:normal;text-align:start;line-height:125%;writing-mode:lr-tb;text-anchor:start;fill:none;fill-opacity:1;stroke:#ec00d3;stroke-width:1px;stroke-linecap:butt;stroke-linejoin:miter;stroke-opacity:1;font-family:Arial;-inkscape-font-specification:Arial"
       d="M 38.641651,15.698244 L 38.641651,15.698244 C 38.270554,14.532889 38.085007,13.588879 38.085011,12.866213 C 38.085007,12.208672 38.324265,11.647149 38.802784,11.181643 C 39.281295,10.716161 39.88188,10.483413 40.604542,10.4834 C 41.281619,10.483413 41.862673,10.708023 42.347706,11.157228 C 42.832724,11.606459 43.124065,12.221693 43.221729,13.002932 L 44.969776,12.73926 C 44.793985,11.567397 44.323608,10.657567 43.558643,10.009768 C 42.793661,9.3619953 41.821983,9.0381024 40.643604,9.0380878 C 39.497766,9.0381024 38.521205,9.3408365 37.713917,9.946291 C 36.711311,10.708023 36.210009,11.765964 36.210011,13.120119 C 36.210009,13.43914 36.239306,13.766288 36.297901,14.101564 C 36.356493,14.43686 36.493212,14.969086 36.708057,15.698244 L 35.204151,15.698244 L 35.204151,17.143557 L 37.118214,17.143557 C 37.228888,17.553719 37.284227,17.957364 37.284229,18.354494 C 37.284227,19.278978 37.066128,20.061854 36.629932,20.703127 C 36.193733,21.344405 35.663135,21.837569 35.038136,22.182619 L 35.711964,23.872072 C 36.14816,23.592124 36.631558,23.37077 37.162159,23.20801 C 37.692755,23.04525 38.192429,22.96387 38.661182,22.963869 C 38.967168,22.96387 39.273157,22.989911 39.579151,23.041994 C 39.774459,23.081057 40.205773,23.203127 40.873096,23.408205 C 41.540407,23.613283 41.961956,23.732098 42.137745,23.76465 C 42.417685,23.816733 42.694378,23.842775 42.967823,23.842775 C 43.293335,23.842775 43.620483,23.803713 43.949268,23.725588 C 44.278035,23.647463 44.741902,23.481447 45.34087,23.227541 L 44.774464,21.616213 C 44.006225,21.980798 43.381226,22.163089 42.899464,22.163088 C 42.502321,22.163089 41.743858,22.029626 40.624073,21.762697 C 39.946985,21.599939 39.338261,21.518559 38.797901,21.518557 C 38.37472,21.518559 37.905971,21.590173 37.391651,21.7334 C 38.010138,21.075851 38.454473,20.43132 38.724659,19.799807 C 38.994837,19.168301 39.129928,18.569343 39.129932,18.002932 C 39.129928,17.716479 39.068079,17.430021 38.944386,17.143557 L 41.717823,17.143557 L 41.717823,15.698244 L 38.641651,15.698244"
       id="text3191" />
    <path
       style="fill:#b0874d;fill-opacity:1;fill-rule:evenodd;stroke:none;stroke-width:1px;stroke-linecap:butt;stroke-linejoin:miter;stroke-opacity:1"
       d="M 74.409449,40.551181 L 74.409449,37.007874 L 77.244094,37.007874 L 74.409449,40.551181 z"
       id="path2400"
       inkscape:label="density=0.2" />
    <path
       style="fill:#b0874d;fill-opacity:1;fill-rule:evenodd;stroke:none;stroke-width:1px;stroke-linecap:butt;stroke-linejoin:miter;stroke-opacity:1;display:inline"
       d="M 81.496063,40.551181 L 81.496063,37.007874 L 78.661418,37.007874 L 81.496063,40.551181 z"
       id="path3172"
       sodipodi:nodetypes="cccc"
       inkscape:label="density=0.2" />
    <path
       sodipodi:type="arc"
       style="fill:#f46600;fill-opacity:1;stroke:none;stroke-opacity:1"
       id="path3178"
       sodipodi:cx="88.937004"
       sodipodi:cy="25.31496"
       sodipodi:rx="1.0629921"
       sodipodi:ry="1.0629921"
       d="M 89.999996,25.31496 A 1.0629921,1.0629921 0 1 1 87.874012,25.31496 A 1.0629921,1.0629921 0 1 1 89.999996,25.31496 z"
       inkscape:label="created_by=bar triggers=baz density=0.5 restitution=0.5" />
    <rect
       style="fill:#b4e56b;fill-opacity:1;stroke:none;stroke-opacity:1"
       id="rect2403"
       width="3.5433071"
       height="3.5433071"
       x="88.58268"
       y="40.551182"
       inkscape:label="ship_triggers=collect1 destroyed_by=collect1 sensor" />
    <path
       sodipodi:type="arc"
       style="fill:#1925f5;fill-opacity:1;stroke:none;stroke-opacity:1"
       id="path2404"
       sodipodi:cx="88.937004"
       sodipodi:cy="20.35433"
       sodipodi:rx="1.0629921"
       sodipodi:ry="1.0629921"
       d="M 89.999996,20.35433 A 1.0629921,1.0629921 0 1 1 87.874012,20.35433 A 1.0629921,1.0629921 0 1 1 89.999996,20.35433 z"
       inkscape:label="created_by=baz density=1 restitution=0.5" />
    <rect
       style="fill:#00ff00;fill-opacity:1;stroke:none;stroke-width:0.30000001;stroke-miterlimit:4;stroke-dasharray:none;stroke-opacity:1"
       id="rect3189"
       width="1.4173229"
       height="9.9212599"
       x="17.007874"
       y="34.173229" />
    <rect
       style="fill:#00ff00;fill-opacity:1;stroke:none;stroke-width:0.30000001;stroke-miterlimit:4;stroke-dasharray:none;stroke-opacity:1"
       id="rect3191"
       width="1.4173229"
       height="3.5433052"
       x="21.968504"
       y="40.551182" />
    <rect
       style="fill:#00ff00;fill-opacity:1;stroke:none;stroke-width:0.30000001;stroke-miterlimit:4;stroke-dasharray:none;stroke-opacity:1"
       id="rect3193"
       width="1.4173229"
       height="2.8346448"
       x="21.968504"
       y="34.173229" />
    <g
       id="button"
       inkscape:label="multishape">
      <rect
         inkscape:label="density=1"
         y="36.299213"
         x="20.551182"
         height="4.9606299"
         width="1.4173229"
         id="rect3195"
         style="fill:#0000ff;fill-opacity:1;stroke:none;stroke-width:0.30000001;stroke-miterlimit:4;stroke-dasharray:none;stroke-opacity:1" />
      <rect
         inkscape:label="density=1"
         y="37.007874"
         x="21.968504"
         height="3.5433071"
         width="3.5433071"
         id="rect3197"
         style="fill:#0000ff;fill-opacity:1;stroke:none;stroke-width:0.30000001;stroke-miterlimit:4;stroke-dasharray:none;stroke-opacity:1" />
    </g>
    <rect
       style="fill:#008000;fill-opacity:1;stroke:none;stroke-width:0.30000001;stroke-miterlimit:4;stroke-dasharray:none;stroke-opacity:1"
       id="rect3227"
       width="0.70866144"
       height="3.5433071"
       x="18.425198"
       y="37.007874"
       inkscape:label="triggers=push" />
    <rect
       style="fill:#008000;fill-opacity:1;stroke:none;stroke-width:0.30000001;stroke-miterlimit:4;stroke-dasharray:none;stroke-opacity:1"
       id="rect3229"
       width="3.5433071"
       height="1.4173229"
       x="18.425198"
       y="42.677166" />
    <rect
       style="fill:#008000;fill-opacity:1;stroke:none;stroke-width:0.30000001;stroke-miterlimit:4;stroke-dasharray:none;stroke-opacity:1"
       id="rect3231"
       width="3.5433071"
       height="1.4173229"
       x="18.425198"
       y="34.173229" />
    <rect
       style="fill:#00ffff;fill-opacity:1;stroke:none;stroke-width:0.30000001;stroke-miterlimit:4;stroke-dasharray:none;stroke-opacity:1"
       id="door_anchor"
       width="1.4173229"
       height="4.2519684"
       x="37.559055"
       y="27.086615"
       inkscape:label="invisible" />
    <rect
       style="fill:#008000;fill-opacity:1;stroke:none;stroke-width:0.30000001;stroke-miterlimit:4;stroke-dasharray:none;stroke-opacity:1"
       id="door"
       width="11.338583"
       height="1.4173237"
       x="27.637794"
       y="29.921259"
       inkscape:label="density=10" />
    <path
       style="fill:none;fill-rule:evenodd;stroke:#d36bd1;stroke-width:0.30000001;stroke-linecap:butt;stroke-linejoin:miter;stroke-miterlimit:4;stroke-dasharray:none;stroke-opacity:1"
       d="M 24.80315,39.133858 L 29.182836,39.133858"
       id="path3185"
       inkscape:label="applies_force=button multiplier=30" />
    <rect
       style="fill:#008000;fill-opacity:1;stroke:none;stroke-width:0.30000001;stroke-miterlimit:4;stroke-dasharray:none;stroke-opacity:1"
       id="rect2414"
       width="3.5433071"
       height="10.62992"
       x="102.75591"
       y="29.921259"
       inkscape:label="invisible" />
    <path
       sodipodi:type="arc"
       style="fill:#0000ff;fill-opacity:1;stroke:none;stroke-width:0.30000001;stroke-miterlimit:4;stroke-dasharray:none;stroke-opacity:1"
       id="path2417"
       sodipodi:cx="38.267715"
       sodipodi:cy="30.629921"
       sodipodi:rx="0.70866144"
       sodipodi:ry="0.70866144"
       d="M 38.976377,30.629921 A 0.70866144,0.70866144 0 1 1 37.559054,30.629921 A 0.70866144,0.70866144 0 1 1 38.976377,30.629921 z"
       inkscape:label="revolute_joint body1=door body2=door_anchor" />
    <rect
       style="fill:#ff00ff;fill-opacity:1;stroke:none;stroke-width:0.30000001;stroke-miterlimit:4;stroke-dasharray:none;stroke-opacity:1"
       id="rect2419"
       width="1.4173229"
       height="1.4173229"
       x="26.929134"
       y="31.338583"
       inkscape:label="invisible destroyed_by=push" />
  </g>
  <g
     inkscape:label="Dynamics"
     inkscape:groupmode="layer"
     id="layer1"
     style="display:inline" />
  <g
     inkscape:groupmode="layer"
     id="layer3"
     inkscape:label="Ships"
     style="display:inline" />
</svg>
