<?xml version="1.0" encoding="UTF-8" standalone="no"?>
<!-- Created with Inkscape (http://www.inkscape.org/) -->
<svg
   xmlns:dc="http://purl.org/dc/elements/1.1/"
   xmlns:cc="http://creativecommons.org/ns#"
   xmlns:rdf="http://www.w3.org/1999/02/22-rdf-syntax-ns#"
   xmlns:svg="http://www.w3.org/2000/svg"
   xmlns="http://www.w3.org/2000/svg"
   xmlns:sodipodi="http://sodipodi.sourceforge.net/DTD/sodipodi-0.dtd"
   xmlns:inkscape="http://www.inkscape.org/namespaces/inkscape"
   width="372.04724"
   height="524.40942"
   id="svg2397"
   sodipodi:version="0.32"
   inkscape:version="0.46"
   version="1.0"
   sodipodi:docname="race_of_spades.svg"
   inkscape:output_extension="org.inkscape.output.svg.inkscape"
   winning_condition="goal">
  <defs
     id="defs2399">
    <inkscape:perspective
       sodipodi:type="inkscape:persp3d"
       inkscape:vp_x="0 : 526.18109 : 1"
       inkscape:vp_y="0 : 1000 : 0"
       inkscape:vp_z="744.09448 : 526.18109 : 1"
       inkscape:persp3d-origin="372.04724 : 350.78739 : 1"
       id="perspective2405" />
  </defs>
  <sodipodi:namedview
     id="base"
     pagecolor="#ffffff"
     bordercolor="#666666"
     borderopacity="1.0"
     gridtolerance="10000"
     guidetolerance="10"
     objecttolerance="10"
     inkscape:pageopacity="0.0"
     inkscape:pageshadow="2"
     inkscape:zoom="1.2459095"
     inkscape:cx="68.03752"
     inkscape:cy="216.70712"
     inkscape:document-units="px"
     inkscape:current-layer="layer1"
     showgrid="false"
     inkscape:window-width="1057"
     inkscape:window-height="667"
     inkscape:window-x="417"
     inkscape:window-y="33" />
  <metadata
     id="metadata2402">
    <rdf:RDF>
      <cc:Work
         rdf:about="">
        <dc:format>image/svg+xml</dc:format>
        <dc:type
           rdf:resource="http://purl.org/dc/dcmitype/StillImage" />
      </cc:Work>
    </rdf:RDF>
  </metadata>
  <g
     inkscape:label="Layer 1"
     inkscape:groupmode="layer"
     id="layer1">
    <path
       style="fill:none;fill-rule:evenodd;stroke:#000000;stroke-width:1px;stroke-linecap:butt;stroke-linejoin:miter;stroke-opacity:1"
       d="M 206.58553,164.58737 C 214.2197,165.85974 214.89809,167.99263 223.61181,167.99263 C 232.61911,167.99263 242.0923,168.60986 250.85386,166.85754 C 258.6568,165.29696 275.03476,163.76175 281.50116,158.91195 C 288.14768,153.92706 293.68705,149.4661 291.71693,139.6155 C 289.6059,129.06035 287.8972,118.14778 283.77133,107.83311 C 281.16396,101.31467 279.72756,95.843741 275.82574,91.941912 C 271.88289,87.999069 268.3064,84.308583 261.06963,82.861229 C 251.66932,80.981168 240.23819,76.818209 230.42232,81.726144 C 220.33349,86.770563 210.79719,86.44613 207.72062,98.752424 C 206.14785,105.04347 205.45045,110.99709 205.45045,118.04887 C 205.45045,125.61611 205.45045,133.18335 205.45045,140.75058 C 205.45045,146.4736 209.99681,162.47001 206.58553,164.58737"
       id="path2407" />
    <path
       style="fill:none;fill-rule:evenodd;stroke:#000000;stroke-width:1px;stroke-linecap:butt;stroke-linejoin:miter;stroke-opacity:1"
       d="M 140.75058,233.82758 C 129.18345,231.89972 117.27594,232.69249 105.56294,232.69249 C 100.00439,232.69249 89.358187,227.74139 83.996315,230.42232 C 76.896544,233.97221 74.829761,235.30615 72.645461,244.04335 C 71.245524,249.6431 71.822153,258.37566 70.375291,265.60997 C 68.668811,274.14237 65.834949,284.75238 65.834949,293.9871 C 65.834949,302.29236 66.970035,312.10541 66.970035,318.95898 C 66.970035,329.75382 71.510376,338.18022 71.510376,348.4712 C 71.510376,356.85397 69.240205,364.16546 69.240205,372.30799 C 69.240205,382.65068 68.10512,392.28151 68.10512,402.95529 C 68.10512,413.23814 70.375291,421.17145 70.375291,430.19734 C 70.375291,440.46118 74.093334,445.74886 79.455973,452.89905 C 83.870577,458.78519 89.369745,466.52007 97.617339,466.52007 C 104.63051,466.52007 111.89897,466.18977 118.04887,463.11482 C 122.42211,460.9282 136.21024,453.44229 136.21024,446.08854 C 136.21024,437.6592 140.75058,429.55324 140.75058,422.25174 C 140.75058,414.30615 140.75058,406.36055 140.75058,398.41495 C 140.75058,388.19918 140.75058,377.98342 140.75058,367.76765 C 140.75058,358.49509 138.48041,349.56457 138.48041,340.5256 C 138.48041,329.67357 136.21024,319.71099 136.21024,308.74321 C 136.21024,302.99149 135.83359,283.38955 138.48041,278.09591 C 141.51221,272.03232 140.75058,263.44527 140.75058,255.3942 C 140.75058,248.20533 133.56171,233.82758 140.75058,233.82758"
       id="path2409" />
    <path
       style="fill:none;fill-rule:evenodd;stroke:#000000;stroke-width:1px;stroke-linecap:butt;stroke-linejoin:miter;stroke-opacity:1"
       d="M 101.02259,518.734 C 95.471237,520.58445 89.771687,521.31293 83.996315,519.86908 C 79.589516,518.76738 72.621326,516.45779 68.10512,515.32874 C 63.991939,514.30045 52.651478,510.23672 48.808669,505.11297 C 44.702819,499.63851 35.6191,496.60756 31.782389,491.49195 C 28.488225,487.09973 27.26512,482.45741 24.971877,477.87093 C 22.350373,472.62792 20.738267,464.34174 19.296451,458.57447 C 17.700679,452.19139 17.73858,443.26231 15.891195,435.87277 C 14.125894,428.81156 12.783813,420.57732 9.0806827,413.17106 C 5.8643251,406.73835 6.810512,398.18545 6.810512,389.33427 C 6.810512,381.13471 8.4037611,372.86521 11.350853,365.49748 C 14.886417,356.65857 15.891195,348.38612 15.891195,337.12034 C 15.891195,326.99472 13.621024,317.54914 13.621024,307.60813 C 13.621024,301.11752 13.111645,291.94958 11.350853,284.90642 C 9.7817229,278.6299 10.215768,271.42241 10.215768,264.47488 C 10.215768,255.13727 11.534384,245.28715 14.756109,237.23283 C 16.561532,232.71928 23.836792,222.61785 23.836792,216.8013 C 23.836792,212.78624 23.705668,196.63201 26.106963,191.82942 C 26.863686,190.31597 27.62041,188.80253 28.377133,187.28908 C 32.661282,178.72078 41.287535,171.2564 51.07884,167.99263 C 58.999799,165.35231 69.399578,158.91195 78.320888,158.91195 C 84.254245,158.91195 97.29682,154.77889 103.29277,157.77686 C 108.09382,160.17739 117.29485,160.80308 124.85939,158.91195 C 132.32938,157.04445 125.99447,153.20116 125.99447,145.29092 C 125.99447,138.67407 128.10418,126.39563 130.53481,120.31905 C 133.46277,112.99914 136.14955,102.27906 139.6155,95.347168 C 140.37222,93.833721 141.12894,92.320274 141.88567,90.806827 C 145.46943,83.639294 144.78009,73.667119 148.69618,65.834949 C 153.10402,57.019263 154.21058,48.678265 163.45229,43.133243 C 171.01453,38.595897 175.61077,32.51366 183.88382,28.377133 C 193.48483,23.576629 203.23777,20.431536 214.53113,20.431536 C 225.88198,20.431536 237.23283,20.431536 248.58369,20.431536 C 258.1078,20.431536 289.96278,16.579217 296.25727,24.971877 C 300.37195,30.45811 312.64964,40.546118 317.82389,43.133243 C 323.01221,45.727403 332.15849,53.641069 334.85017,59.024437 C 338.48537,66.294827 345.26946,75.991984 348.4712,83.996315 C 350.62433,89.379147 354.38578,105.50224 353.01154,112.37345 C 351.62607,119.30077 351.87645,127.44904 351.87645,135.07515 C 351.87645,142.01122 352.5196,157.62566 349.60628,163.45229 C 349.22792,164.20901 348.67639,164.90168 348.4712,165.72246 C 346.45851,173.7732 344.54358,185.38808 339.39051,191.82942 C 331.40517,201.8111 328.67557,207.24368 318.95898,214.53113 C 310.88058,220.58993 299.21424,225.10117 289.44676,229.28724 C 286.79823,230.42232 284.07847,231.40384 281.50116,232.69249 C 262.83261,242.02677 247.02004,236.09775 227.01707,236.09775 C 220.20411,236.09775 205.45045,230.4652 205.45045,239.50301 C 205.45045,247.02328 206.06821,255.19332 204.31536,262.20471 C 202.09299,271.09419 205.45045,277.98394 205.45045,286.0415 C 205.45045,296.86424 207.72062,304.0724 207.72062,314.41864 C 207.72062,325.46988 209.99079,336.65008 209.99079,348.4712 C 209.99079,357.98195 207.72062,367.32275 207.72062,376.84833 C 207.72062,384.86876 205.45045,392.20651 205.45045,400.68512 C 205.45045,411.05407 205.45045,423.85113 205.45045,435.87277 C 205.45045,443.48932 204.22231,451.95005 200.9101,458.57447 C 198.3526,463.68948 195.79722,473.90313 191.82942,477.87093 C 186.24075,483.45959 181.96939,492.44917 174.80314,496.03229 C 168.52961,499.16905 161.36984,505.03789 155.50669,507.38314 C 148.37916,510.23416 136.52553,514.19366 128.26464,514.19366 C 118.49612,514.19366 106.89168,518.734 101.02259,518.734"
       id="path2411" />
    <path
       style="fill:#0000e2;fill-opacity:1;fill-rule:evenodd;stroke:none;stroke-width:1px;stroke-linecap:butt;stroke-linejoin:miter;stroke-opacity:1"
       d="M 185.09728,408.92942 L 182.26263,416.01603 L 185.09728,415.30737 L 185.80594,415.30737 L 188.64058,416.01603 L 185.80594,408.92942 L 185.09728,408.92942 z"
       id="ship"
       sodipodi:nodetypes="ccccccc"
       inkscape:label="density=1.0 triangulate" />
    <rect
       style="fill:none;fill-opacity:1;stroke:#ff0000;stroke-width:2.00897121;stroke-miterlimit:4;stroke-dasharray:none;stroke-opacity:1;display:inline"
       id="viewport"
       width="243.14369"
       height="149.39186"
       x="2.764231"
       y="350.99045"
       inkscape:label="" />
    <path
       style="fill:none;fill-rule:evenodd;stroke:#00ff00;stroke-width:1.1095804px;stroke-linecap:butt;stroke-linejoin:miter;stroke-opacity:1"
       d="M 138.16436,399.19968 L 205.35981,399.19968"
       id="goal"
       inkscape:label="sensor created_by=check6 triggers=goal destroyed_by=goal" />
    <path
       style="fill:none;fill-rule:evenodd;stroke:#00ff00;stroke-width:1.27345431px;stroke-linecap:butt;stroke-linejoin:miter;stroke-opacity:1"
       d="M 123.09296,149.58283 L 211.60231,149.58283"
       id="check2"
       inkscape:label="sensor created_by=check1 triggers=check2 destroyed_by=check2" />
    <path
       style="fill:none;fill-rule:evenodd;stroke:#00ff00;stroke-width:1.29143643px;stroke-linecap:butt;stroke-linejoin:miter;stroke-opacity:1"
       d="M 267.64987,91.617182 L 309.43862,34.18114"
       id="check3"
       inkscape:label="sensor created_by=check2 triggers=check3 destroyed_by=check3" />
    <path
       style="fill:none;fill-rule:evenodd;stroke:#00ff00;stroke-width:1.16637254px;stroke-linecap:butt;stroke-linejoin:miter;stroke-opacity:1"
       d="M 219.50445,240.1654 L 221.94015,160.93382"
       id="check4"
       inkscape:label="sensor created_by=check3 triggers=check4 destroyed_by=check4" />
    <path
       style="fill:none;fill-rule:evenodd;stroke:#00ff00;stroke-width:1.11008191px;stroke-linecap:butt;stroke-linejoin:miter;stroke-opacity:1"
       d="M 120.0997,233.79775 L 119.08302,159.27521"
       id="check5"
       inkscape:label="sensor created_by=check4 triggers=check5 destroyed_by=check5" />
    <path
       style="fill:none;fill-rule:evenodd;stroke:#00ff00;stroke-width:1.34441221px;stroke-linecap:butt;stroke-linejoin:miter;stroke-opacity:1"
       d="M 28.953438,496.90108 L 81.809021,445.97105"
       id="check6"
       inkscape:label="sensor created_by=check5 triggers=check6 destroyed_by=check6" />
    <path
       style="fill:none;fill-rule:evenodd;stroke:#00ff00;stroke-width:1.27345431px;stroke-linecap:butt;stroke-linejoin:miter;stroke-opacity:1"
       d="M 129.11266,250.71377 L 217.62201,250.71377"
       id="check1"
       inkscape:label="sensor triggers=check1 destroyed_by=check1" />
  </g>
</svg>
